<svg style="enable-background:new 0 0 163.000000 87.000000;" version="1.1"  width="163.000000pt" height="87.000000pt" viewBox="0 0 163.000000 87.000000" xml:space="preserve"
    xmlns="http://www.w3.org/2000/svg" xmlns:xlink="http://www.w3.org/1999/xlink">
    <g transform="translate(0.000000,87.000000) scale(0.100000,-0.100000)">
<path d="M713 833 l-112 -4 10 -28 c10 -27 12 -28 101 -35 50 -3 247 -6 438
-6 323 0 348 -1 363 -18 15 -16 17 -52 17 -304 0 -265 -1 -286 -19 -302 -16
-14 -59 -17 -353 -23 l-336 -6 10 -28 c8 -24 16 -29 61 -34 29 -3 180 -5 337
-3 403 4 380 -20 380 398 0 312 -3 329 -64 373 -31 22 -36 22 -376 23 -190 0
-395 -1 -457 -3z"/>
<path d="M160 666 l0 -65 33 -3 32 -3 0 -140 0 -140 -33 -3 -33 -3 3 -67 3
-67 123 -3 122 -3 0 71 0 70 -30 0 c-28 0 -30 2 -30 40 l0 40 45 0 45 0 0 60
0 60 -45 0 -45 0 0 45 0 46 78 -3 77 -3 0 -53 0 -52 43 0 42 0 0 120 0 120
-215 0 -215 0 0 -64z"/>
<path d="M610 665 l0 -65 31 0 31 0 -4 -110 -3 -110 -37 0 c-84 0 -158 -126
-117 -202 10 -19 16 -20 120 -13 82 5 114 4 125 -6 11 -9 18 -9 26 -1 7 7 27
12 45 12 23 0 33 5 33 15 0 9 -9 15 -24 15 -13 0 -38 3 -55 6 -29 6 -32 10
-29 41 l3 34 93 4 c51 1 95 5 98 7 2 3 -28 8 -68 12 -78 7 -90 12 -68 26 10 7
11 10 3 10 -7 0 -13 11 -13 25 0 23 4 25 40 25 33 0 40 3 40 20 0 21 15 27 25
10 9 -15 61 -12 75 5 13 15 6 35 -13 35 -7 0 -6 -4 3 -10 22 -14 -1 -32 -36
-28 -37 4 -41 24 -7 36 15 6 21 11 13 11 -9 1 -26 -6 -38 -15 -21 -15 -22 -14
-22 20 0 35 -1 36 -40 36 l-40 0 0 45 0 45 75 0 75 0 0 -55 0 -55 45 0 45 0 0
120 0 120 -215 0 -215 0 0 -65z m60 -345 c0 -5 -5 -10 -11 -10 -5 0 -7 5 -4
10 3 6 8 10 11 10 2 0 4 -4 4 -10z m118 -141 c-2 -6 -8 -10 -13 -10 -5 0 -11
4 -13 10 -2 6 4 11 13 11 9 0 15 -5 13 -11z"/>
<path d="M1170 713 c-68 -35 -102 -116 -104 -245 -1 -43 -5 -78 -10 -78 -5 0
7 -15 26 -34 46 -45 81 -118 76 -156 -3 -21 -1 -27 7 -20 7 6 24 6 46 0 49
-15 105 -3 129 27 14 18 21 21 24 12 15 -50 15 -50 53 -47 l38 3 3 103 3 102
29 0 c29 0 30 1 30 50 l0 50 -125 0 -125 0 0 -50 c0 -46 2 -50 23 -50 32 0 36
-6 28 -38 -11 -39 -65 -38 -94 1 -43 57 -19 223 36 248 31 14 77 -6 92 -39 8
-18 18 -22 57 -22 l48 0 0 100 0 100 -45 0 c-38 0 -45 -3 -45 -20 0 -24 -8
-25 -32 -3 -28 25 -124 29 -168 6z"/>
<path d="M1021 355 c20 -36 30 -64 27 -80 -3 -13 -1 -22 3 -19 16 10 9 48 -16
92 -14 24 -22 48 -19 53 3 5 -2 9 -10 9 -13 0 -10 -12 15 -55z"/>
<path d="M1015 239 c-4 -6 -5 -12 -2 -15 2 -3 7 2 10 11 7 17 1 20 -8 4z"/>
<path d="M900 181 c0 -23 23 -34 39 -18 13 13 15 37 2 37 -5 0 -8 -6 -7 -12 0
-7 -3 -13 -9 -13 -5 0 -9 6 -9 13 1 6 -2 12 -7 12 -5 0 -9 -9 -9 -19z"/>
<path d="M1010 191 c0 -6 4 -13 10 -16 6 -3 7 1 4 9 -7 18 -14 21 -14 7z"/>
<path d="M1063 163 c15 -2 39 -2 55 0 15 2 2 4 -28 4 -30 0 -43 -2 -27 -4z"/>
</g>
            </svg>